<svg width="50" height="50" viewBox="0 0 50 50" fill="none" xmlns="http://www.w3.org/2000/svg">
<path d="M25 2.00001C12.3095 2.00001 2 12.3095 2 25C2 29.0791 3.11869 32.8859 4.98438 36.209L2.03711 46.7305C1.94129 47.0731 2.0347 47.4408 2.28242 47.6962C2.53014 47.9515 2.89486 48.0561 3.24023 47.9707L14.2109 45.252C17.4346 46.9729 21.0926 48 25 48C37.6905 48 48 37.6905 48 25C48 12.3095 37.6905 2.00001 25 2.00001ZM25 4.00001C36.6095 4.00001 46 13.3905 46 25C46 36.6095 36.6095 46 25 46C21.278 46 17.7921 45.0296 14.7617 43.334C14.5401 43.2101 14.2796 43.1752 14.0332 43.2363L4.42578 45.6172L7.00195 36.4258C7.07644 36.1633 7.04046 35.8818 6.90234 35.6465C5.06068 32.5236 4 28.8901 4 25C4 13.3905 13.3905 4.00001 25 4.00001ZM16.6426 13C16.0015 13 15.0861 13.2385 14.334 14.0488C13.8823 14.5356 12 16.3695 12 19.5938C12 22.9553 14.3314 25.8559 14.6133 26.2285H14.6152V26.2305C14.5885 26.1953 14.973 26.7522 15.4863 27.4199C15.9996 28.0877 16.7174 28.9647 17.6191 29.9141C19.4226 31.8129 21.9583 34.0074 25.1055 35.3496C26.5548 35.9668 27.6982 36.3394 28.5644 36.6113C30.1698 37.1154 31.6321 37.0388 32.7305 36.877C33.5526 36.7559 34.4569 36.3611 35.3516 35.7949C36.2462 35.2288 37.1231 34.5247 37.5098 33.4551C37.7868 32.6883 37.9276 31.9796 37.9785 31.3965C38.004 31.1049 38.0072 30.8476 37.9883 30.6094C37.9693 30.3712 37.9896 30.1887 37.7676 29.8242C37.302 29.0598 36.7747 29.0399 36.2246 28.7676C35.9189 28.6163 35.0487 28.1913 34.1758 27.7754C33.3039 27.3599 32.5489 26.992 32.084 26.8262C31.7902 26.7205 31.4316 26.5684 30.9141 26.627C30.3966 26.6856 29.8855 27.0589 29.5879 27.5C29.3058 27.9181 28.1704 29.2584 27.8242 29.6524C27.8196 29.6496 27.8497 29.6634 27.7129 29.5957C27.2848 29.3838 26.7612 29.2037 25.9863 28.7949C25.2115 28.3862 24.2423 27.7826 23.1816 26.8477V26.8457C21.603 25.456 20.4973 23.7111 20.1484 23.125C20.1719 23.0971 20.1457 23.1309 20.1953 23.0821L20.1973 23.0801C20.5538 22.7289 20.8697 22.3095 21.1367 22.002C21.5152 21.5659 21.6823 21.1815 21.8633 20.8223C22.2239 20.1065 22.0231 19.3188 21.8144 18.9043V18.9024C21.8288 18.931 21.7016 18.6502 21.5644 18.3262C21.4269 18.0013 21.2516 17.5801 21.0644 17.1309C20.69 16.2325 20.272 15.2249 20.0234 14.6348V14.6329C19.7306 13.9377 19.3344 13.437 18.8164 13.1954C18.2984 12.9538 17.8408 13.0224 17.8223 13.0215H17.8203C17.4507 13.0045 17.045 13 16.6426 13ZM16.6426 15C17.0281 15 17.4082 15.0047 17.7266 15.0195C18.0541 15.0359 18.0337 15.0372 17.9707 15.0078C17.9067 14.978 17.9935 14.9683 18.1797 15.4102C18.4231 15.988 18.8432 16.9992 19.2187 17.9004C19.4065 18.351 19.5823 18.7738 19.7227 19.1055C19.863 19.4371 19.9391 19.6223 20.0273 19.7988V19.8008L20.0293 19.8027C20.1158 19.9735 20.1082 19.8642 20.0781 19.9238C19.8671 20.3426 19.8385 20.4455 19.625 20.6914C19.3 21.0658 18.9685 21.4834 18.793 21.6562C18.6394 21.8071 18.3624 22.042 18.1894 22.5019C18.0162 22.9626 18.0971 23.5946 18.375 24.0664C18.745 24.6946 19.9644 26.6793 21.8594 28.3476C23.0528 29.3997 24.1646 30.0959 25.0527 30.5644C25.9409 31.033 26.6643 31.3066 26.8262 31.3867C27.2106 31.5769 27.6307 31.7247 28.1192 31.666C28.6076 31.6074 29.0288 31.311 29.2969 31.0078L29.2988 31.0059C29.6556 30.6013 30.7158 29.3907 31.2246 28.6445C31.2462 28.6521 31.2391 28.6462 31.4082 28.707V28.709H31.4102C31.4874 28.7365 32.4543 29.1693 33.3164 29.5801C34.1785 29.9909 35.0536 30.4179 35.3379 30.5586C35.7482 30.7617 35.9421 30.8939 35.9922 30.8945C35.9956 30.9825 35.999 31.0779 35.9863 31.2227C35.9513 31.6243 35.8439 32.1802 35.6289 32.7754C35.5236 33.0667 34.975 33.6677 34.2832 34.1055C33.5914 34.5433 32.7493 34.8525 32.4375 34.8984C31.4999 35.0366 30.3867 35.087 29.1641 34.7031C28.3163 34.437 27.2593 34.0926 25.8906 33.5098C23.1148 32.326 20.7556 30.3115 19.0703 28.5371C18.2277 27.6499 17.5526 26.824 17.0723 26.1992C16.5929 25.5756 16.3835 25.2511 16.209 25.0215L16.207 25.0195C15.8972 24.6098 14 21.9709 14 19.5938C14 17.078 15.1685 16.0914 15.8008 15.4102C16.1327 15.0525 16.4956 15 16.6426 15Z" fill="white"/>
</svg>
