<svg width="50" height="50" viewBox="0 0 50 50" fill="none" xmlns="http://www.w3.org/2000/svg">
<g clip-path="url(#clip0_20_56)">
<path d="M14.5132 0C6.52042 0 0 6.52044 0 14.5132V35.4868C0 43.4796 6.52044 50 14.5132 50H35.4868C43.4796 50 50 43.4796 50 35.4868V14.5132C50 6.52046 43.4796 3.84615e-05 35.4868 3.84615e-05L14.5132 0ZM14.5132 3.84615H35.4868C41.3987 3.84615 46.1538 8.59375 46.1538 14.5132V35.4868C46.1538 41.3987 41.4062 46.1538 35.4868 46.1538H14.5132C8.60127 46.1538 3.84617 41.4063 3.84617 35.4868V14.5132C3.84617 8.60129 8.59373 3.84615 14.5132 3.84615ZM39.423 7.69231C37.8305 7.69231 36.5384 8.98438 36.5384 10.5769C36.5384 12.1695 37.8305 13.4615 39.423 13.4615C41.0156 13.4615 42.3077 12.1695 42.3077 10.5769C42.3077 8.98438 41.0156 7.69231 39.423 7.69231ZM25 11.5385C17.5856 11.5385 11.5384 17.5856 11.5384 25C11.5384 32.4144 17.5856 38.4615 25 38.4615C32.4143 38.4615 38.4615 32.4144 38.4615 25C38.4615 17.5856 32.4143 11.5385 25 11.5385ZM25 15.3846C30.3335 15.3846 34.6154 19.6665 34.6154 25C34.6154 30.3335 30.3335 34.6154 25 34.6154C19.6664 34.6154 15.3846 30.3335 15.3846 25C15.3846 19.6665 19.6664 15.3846 25 15.3846Z" fill="white"/>
</g>
<defs>
<clipPath id="clip0_20_56">
<rect width="50" height="50" fill="white"/>
</clipPath>
</defs>
</svg>
