<svg width="50" height="50" viewBox="0 0 50 50" fill="none" xmlns="http://www.w3.org/2000/svg">
<path d="M25 2C12.3093 2 2 12.3093 2 25C2 37.6907 12.3093 48 25 48C37.6907 48 48 37.6907 48 25C48 12.3093 37.6907 2 25 2ZM25 4C36.6098 4 46 13.3902 46 25C46 36.6098 36.6098 46 25 46C13.3902 46 4 36.6098 4 25C4 13.3902 13.3902 4 25 4ZM16 12C14.355 12 13 13.355 13 15C13 16.645 14.355 18 16 18C17.645 18 19 16.645 19 15C19 13.355 17.645 12 16 12ZM16 14C16.5641 14 17 14.4359 17 15C17 15.5641 16.5641 16 16 16C15.4359 16 15 15.5641 15 15C15 14.4359 15.4359 14 16 14ZM14 19C13.4477 19.0001 13.0001 19.4477 13 20V35C13.0001 35.5523 13.4477 35.9999 14 36H18C18.5523 35.9999 18.9999 35.5523 19 35V20C18.9999 19.4477 18.5523 19.0001 18 19H14ZM22 19C21.4477 19.0001 21.0001 19.4477 21 20V35C21.0001 35.5523 21.4477 35.9999 22 36H26C26.5523 35.9999 26.9999 35.5523 27 35V27.5C27 26.1205 28.1205 25 29.5 25C30.8795 25 32 26.1205 32 27.5V30V35C32.0001 35.5523 32.4477 35.9999 33 36H37C37.5523 35.9999 37.9999 35.5523 38 35V26.5C38 22.3696 34.6304 19 30.5 19C29.2135 19 28.0597 19.4162 27 19.9902C26.9946 19.4418 26.5485 19 26 19H22ZM15 21H17V34H15V21ZM23 21H25V21.8164C25 22.2173 25.2395 22.5795 25.6084 22.7365C25.9774 22.8935 26.4044 22.815 26.6934 22.5371C27.6842 21.5853 29.0167 21 30.5 21C33.5496 21 36 23.4504 36 26.5V34H34V30V27.5C34 25.0295 31.9705 23 29.5 23C27.0295 23 25 25.0295 25 27.5V34H23V21Z" fill="white"/>
</svg>
