<svg width="50" height="50" viewBox="0 0 50 50" fill="none" xmlns="http://www.w3.org/2000/svg">
<g clip-path="url(#clip0_20_60)">
<path d="M25 0C11.1937 0 0 11.369 0 25.3915C0 37.2895 8.06667 47.245 18.9417 50C18.825 49.6572 18.75 49.2594 18.75 48.7664V44.4266C17.7354 44.4266 16.0354 44.4266 15.6083 44.4266C13.8979 44.4266 12.3771 43.6796 11.6396 42.2916C10.8208 40.749 10.6792 38.3898 8.65 36.9467C8.04792 36.4664 8.50625 35.9183 9.2 35.9924C10.4812 36.3606 11.5437 37.2535 12.5437 38.5781C13.5396 39.9048 14.0083 40.2052 15.8687 40.2052C16.7708 40.2052 18.1208 40.1523 19.3917 39.9492C20.075 38.1866 21.2562 36.5637 22.7 35.7977C14.375 34.9281 10.4021 30.7215 10.4021 25.0106C10.4021 22.5518 11.4333 20.1735 13.1854 18.1697C12.6104 16.1807 11.8875 12.1244 13.4063 10.5798C17.1521 10.5798 19.4167 13.047 19.9604 13.7135C21.8271 13.0639 23.8771 12.6957 26.0312 12.6957C28.1896 12.6957 30.2479 13.0639 32.1187 13.7177C32.6562 13.0554 34.9229 10.5798 38.6771 10.5798C40.2021 12.1265 39.4708 16.1997 38.8896 18.1845C40.6312 20.1841 41.6563 22.5561 41.6563 25.0106C41.6563 30.7173 37.6896 34.9217 29.3771 35.7956C31.6646 37.008 33.3333 40.4147 33.3333 42.9814V48.7664C33.3333 48.9865 33.2854 49.1452 33.2604 49.3335C43.0021 45.8654 50 36.4706 50 25.3915C50 11.369 38.8062 0 25 0Z" fill="white"/>
</g>
<defs>
<clipPath id="clip0_20_60">
<rect width="50" height="50" fill="white"/>
</clipPath>
</defs>
</svg>
