<svg width="1366" height="120" viewBox="0 0 1366 120" fill="none" xmlns="http://www.w3.org/2000/svg">
<path opacity="0.25" d="M0 0V46.29C54.401 68.49 117.92 78.46 179.857 74.29C259.95 68.92 335.046 40.98 415.264 36.79C499.319 32.43 583.214 53.67 663.648 72.05C742.501 90.05 821.08 96.93 902.015 85.13C943.166 79.13 981.528 67.29 1020.91 55.79C1126.37 25 1266.96 -14.29 1366 52.47V0H0Z" fill="white"/>
<path opacity="0.5" d="M0 0V15.81C14.7983 36.92 31.4635 56.86 54.2871 72.05C113.162 111.27 187.825 111 255.647 91.58C291.106 81.43 324.049 65.51 357.721 51.78C404.302 32.78 454.172 5.78 506.649 2.11C547.925 -0.74 587.357 11.53 618.889 33.67C655.054 59.06 689.83 95.67 736.855 106.67C782.889 117.46 829.458 99.98 872.464 82.39C915.47 64.8 958.021 43.39 1005.56 39.34C1073.55 33.49 1134.51 62.22 1197.82 78.18C1232.2 86.84 1264.98 84.35 1296.96 70.68C1322.49 59.79 1351.6 43.75 1366 21.44V0H0Z" fill="white"/>
<path d="M0 0V5.63C170.67 59 357.539 71.32 541.653 42.57C590.601 34.93 637.535 22.45 686.916 16.11C754.078 7.48 814.956 28.35 875.378 51.51C942.46 77.22 1008.56 95.24 1082.78 90C1181.28 83 1279.1 44.29 1366 5.19V0H0Z" fill="white"/>
</svg>
